<svg xmlns="http://www.w3.org/2000/svg" width="325.143" height="349.675" viewBox="0 0 325.143 349.675">
  <g id="dark_logo_no_text" data-name="dark logo no text" transform="translate(-224.002 -734.34)">
    <g id="Group_25" data-name="Group 25">
      <path id="Path_2" data-name="Path 2" d="M9.42,2.863c5.2,0,9.42,3.4,9.42,8.6,0,2.742-1.822,5.295-3.753,7.072A7.7,7.7,0,0,1,9.42,20.885c-2.742,0-4.8-1.762-6.576-3.692C1.354,15.575,0,13.926,0,11.466,0,6.263,4.217,2.863,9.42,2.863Z" transform="translate(369.644 731.477)" fill="#1e1e1e"/>
      <path id="Path_21" data-name="Path 21" d="M11.5,2.863c6.351,0,11.5,4.151,11.5,10.5,0,3.347-2.225,6.464-4.582,8.633A9.4,9.4,0,0,1,11.5,24.865c-3.347,0-5.859-2.152-8.028-4.508C1.653,18.382,0,16.369,0,13.365,0,7.014,5.149,2.863,11.5,2.863Z" transform="translate(340.135 733.638)" fill="#1e1e1e"/>
      <path id="Path_5" data-name="Path 5" d="M7.379,2.863a9.642,9.642,0,0,1,6.445,2.371A8.129,8.129,0,0,1,16.8,11.466c0,2.742-1.822,5.295-3.753,7.072-1.617,1.489-3.206,1.869-5.667,1.869A8.68,8.68,0,0,1,.8,17.193c-1.49-1.617-3.658-3.266-3.658-5.727C-2.855,8.8-1.041,6.79.8,5.235A10.455,10.455,0,0,1,7.379,2.863Z" transform="translate(312.994 737.028)" fill="#1e1e1e"/>
      <path id="Path_6" data-name="Path 6" d="M10.234,0A9.642,9.642,0,0,1,16.68,2.371,8.129,8.129,0,0,1,19.654,8.6c0,2.742-1.822,5.295-3.753,7.072-1.617,1.489-3.206,1.869-5.667,1.869a8.68,8.68,0,0,1-6.576-3.214C2.169,12.712,0,11.063,0,8.6,0,5.933,1.814,3.927,3.658,2.371c.315-.266.929-.376,1.37-.655A9.617,9.617,0,0,1,10.234,0Z" transform="matrix(-0.966, 0.259, -0.259, -0.966, 521.007, 879.462)" fill="#1e1e1e"/>
      <path id="Path_3" data-name="Path 3" d="M8.506,3.348c5.2,0,10.333,3.262,10.333,8.464a8.048,8.048,0,0,1-1.051,4.241,14.724,14.724,0,0,1-2.7,2.831c-1.617,1.489-3.22,1.288-5.681,1.288a8.149,8.149,0,0,1-6.562-2.633C1.354,15.921,0,14.272,0,11.812,0,6.609,3.3,3.348,8.506,3.348Z" transform="translate(229.95 837.142)" fill="#1e1e1e"/>
      <path id="Path_18" data-name="Path 18" d="M10.385,3.348C16.736,3.348,23,7.33,23,13.681a9.826,9.826,0,0,1-1.283,5.177,17.976,17.976,0,0,1-3.3,3.456c-1.974,1.818-3.931,1.572-6.935,1.572-3.347,0-5.842-.858-8.011-3.214C1.653,18.7,0,16.685,0,13.681,0,7.33,4.034,3.348,10.385,3.348Z" transform="translate(264.305 755.308)" fill="#1e1e1e"/>
      <path id="Path_10" data-name="Path 10" d="M8.559,7.8c5.2,0,10.28,1.989,10.28,7.192a8.048,8.048,0,0,1-1.051,4.241c-.64,1.058-2.066,1.772-2.983,2.616-1.617,1.489-2.954.967-5.414.967-2.742,0-4.344-.526-6.12-2.456C1.781,18.747,0,17.457,0,15,0,9.794,3.357,7.8,8.559,7.8Z" transform="translate(427.132 764.283)" fill="#1e1e1e"/>
      <path id="Path_11" data-name="Path 11" d="M10.28,22.544C5.077,22.544,0,20.6,0,15.526a7.7,7.7,0,0,1,1.051-4.138c.64-1.033,2.066-1.73,2.983-2.553,1.617-1.453,2.954-.943,5.414-.943,2.742,0,4.344.513,6.12,2.4,1.49,1.578,3.271,2.837,3.271,5.238C18.839,20.6,15.482,22.544,10.28,22.544Z" transform="translate(301.126 791.162)" fill="#1e1e1e"/>
      <path id="Path_7" data-name="Path 7" d="M9.653,19.1c5.9,0,11.726-3.7,11.726-9.605a9.134,9.134,0,0,0-1.192-4.813,16.71,16.71,0,0,0-3.066-3.213C15.286-.218,13.466.01,10.674.01A9.248,9.248,0,0,0,3.227,3C1.536,4.834,0,6.705,0,9.5,0,15.4,3.749,19.1,9.653,19.1Z" transform="translate(493.001 779.64) rotate(30)" fill="#1e1e1e"/>
      <path id="Path_14" data-name="Path 14" d="M10.385,20.55C16.736,20.55,23,16.568,23,10.217A9.826,9.826,0,0,0,21.716,5.04a17.976,17.976,0,0,0-3.3-3.456C16.444-.235,14.486.011,11.482.011,8.135.011,5.64.869,3.471,3.225,1.653,5.2,0,7.213,0,10.217,0,16.568,4.034,20.55,10.385,20.55Z" transform="translate(252.97 873.533) rotate(30)" fill="#1e1e1e"/>
      <path id="Path_8" data-name="Path 8" d="M9.653,19.1c5.9,0,11.726-3.7,11.726-9.605a9.134,9.134,0,0,0-1.192-4.813,16.71,16.71,0,0,0-3.066-3.213C15.286-.218,13.466.01,10.674.01A9.248,9.248,0,0,0,3.227,3C1.536,4.834,0,6.705,0,9.5,0,15.4,3.749,19.1,9.653,19.1Z" transform="translate(493.001 819.641) rotate(30)" fill="#1e1e1e"/>
      <path id="Path_15" data-name="Path 15" d="M10.385,20.55C16.736,20.55,23,16.568,23,10.217A9.826,9.826,0,0,0,21.716,5.04a17.976,17.976,0,0,0-3.3-3.456C16.444-.235,14.486.011,11.482.011,8.135.011,5.64.869,3.471,3.225,1.653,5.2,0,7.213,0,10.217,0,16.568,4.034,20.55,10.385,20.55Z" transform="translate(234.277 809.033) rotate(30)" fill="#1e1e1e"/>
      <path id="Path_9" data-name="Path 9" d="M12.552,23.309c7.2,0,14.308-4.517,14.308-11.72A11.145,11.145,0,0,0,25.4,5.716,20.389,20.389,0,0,0,21.663,1.8C19.424-.266,17.2.013,13.8.013,10,.013,7.171.986,4.71,3.658,2.648,5.9,0,8.581,0,11.989,0,19.192,5.348,23.309,12.552,23.309Z" transform="translate(525.883 806.874) rotate(30)" fill="#1e1e1e"/>
      <path id="Path_16" data-name="Path 16" d="M11.066,20.55c6.351,0,12.615-3.982,12.615-10.333A9.826,9.826,0,0,0,22.4,5.04a17.976,17.976,0,0,0-3.3-3.456C17.125-.235,15.168.011,12.164.011c-3.347,0-5.842.858-8.011,3.214C2.334,5.2,0,7.566,0,10.57,0,16.921,4.715,20.55,11.066,20.55Z" transform="translate(398.758 742.45) rotate(30)" fill="#1e1e1e"/>
      <path id="Path_4" data-name="Path 4" d="M11.779,3.348a20.119,20.119,0,0,1,7.649,1.481,10.789,10.789,0,0,1,6.658,10.239,11.145,11.145,0,0,1-1.455,5.872,20.389,20.389,0,0,1-3.742,3.92c-2.239,2.062-4.459,1.783-7.866,1.783-3.8,0-6.626-.973-9.086-3.646C1.875,20.759,0,18.475,0,15.068c0-3.724,1.675-5.8,3.937-7.91C5.885,5.337,8.3,3.348,11.779,3.348Z" transform="translate(455.225 772.31)" fill="#1e1e1e"/>
      <path id="Path_19" data-name="Path 19" d="M10.385,3.348a17.737,17.737,0,0,1,6.744,1.306A9.512,9.512,0,0,1,23,13.681a9.826,9.826,0,0,1-1.283,5.177,17.976,17.976,0,0,1-3.3,3.456c-1.974,1.818-3.931,1.572-6.935,1.572-3.347,0-5.842-.858-8.011-3.214C1.653,18.7,0,16.685,0,13.681,0,10.4,1.476,8.571,3.471,6.707,5.188,5.1,7.317,3.348,10.385,3.348Z" transform="translate(242.695 789.809)" fill="#1e1e1e"/>
      <path id="Path_23" data-name="Path 23" d="M2.935,1.134,10.053,0l2.322,46.679L7.8,112.405l4.72,51.167L10.053,190.6H.908l2.832-29.777L.908,112.405,5.767,46.679Z" transform="translate(380.741 893.413)" fill="#1e1e1e"/>
    </g>
    <g id="Group_26" data-name="Group 26">
      <path id="Path_24" data-name="Path 24" d="M0,0S12.726,14.9,43.463,18.231s79.486-4.887,79.486-4.887" transform="translate(263.532 895.412)" fill="none" stroke="#1e1e1e" stroke-width="3"/>
      <path id="Path_25" data-name="Path 25" d="M0,0S30.823,30.112,67.11,41.153s78.037,3.008,78.037,3.008" transform="translate(243.011 854.635) rotate(3)" fill="none" stroke="#1e1e1e" stroke-width="3"/>
      <path id="Path_28" data-name="Path 28" d="M0,0A86.515,86.515,0,0,0,17.566,21.347,158.6,158.6,0,0,0,42.9,39.421a277.265,277.265,0,0,0,26.6,13.6c36.833,16.433,76.714,16.573,76.714,16.573" transform="translate(243.011 827.378) rotate(3)" fill="none" stroke="#1e1e1e" stroke-width="3"/>
      <path id="Path_29" data-name="Path 29" d="M0,0A109.756,109.756,0,0,0,15.881,26.56a155.008,155.008,0,0,0,22.9,22.489,235.106,235.106,0,0,0,24.046,16.92c33.3,20.447,69.354,20.621,69.354,20.621" transform="translate(259.011 809.378) rotate(3)" fill="none" stroke="#1e1e1e" stroke-width="3"/>
      <path id="Path_33" data-name="Path 33" d="M0,0S6.595,24.137,9.752,46.126c1.833,12.765,7.316,26.521,10,38.858,2.161,9.918,5.068,23.092,7.431,31.311,9.806,34.116,11.738,28.184,11.738,28.184" transform="translate(352.386 754.378) rotate(3)" fill="none" stroke="#1e1e1e" stroke-width="3"/>
      <path id="Path_34" data-name="Path 34" d="M0,0S-1.438,26.478-.215,50.042c.71,13.68,4.165,31.965,5.206,45.186.837,10.628,4.625,20.591,5.54,29.4,3.8,36.56,4.547,30.2,4.547,30.2" transform="translate(379.318 748.7) rotate(3)" fill="none" stroke="#1e1e1e" stroke-width="3"/>
      <path id="Path_35" data-name="Path 35" d="M6.242,0s.6,22.655.089,42.815c-.294,11.7-1.724,27.349-2.155,38.66-.346,9.094-1.915,17.617-2.294,25.153C.31,137.909,0,132.469,0,132.469" transform="translate(395.973 762.762) rotate(3)" fill="none" stroke="#1e1e1e" stroke-width="3"/>
      <path id="Path_36" data-name="Path 36" d="M44.694,1.772a264.617,264.617,0,0,1-4.267,31.192A102.509,102.509,0,0,1,35.188,49.2c-2.5,6.426-5.356,13.182-6.947,18.557C25.881,75.733,18.733,89.4,16.153,96,5.444,123.428,0,116.135,0,116.135" transform="translate(394.055 779.46) rotate(3)" fill="none" stroke="#1e1e1e" stroke-width="3"/>
      <path id="Path_37" data-name="Path 37" d="M73.531,1.772A150.2,150.2,0,0,1,66.51,31.162c-1.508,4.428-4.827,9.717-8.618,15.3-4.11,6.054-8.812,12.42-11.429,17.485C42.58,71.461,30.82,84.337,26.575,90.562,8.957,116.4,0,109.53,0,109.53" transform="translate(392.257 788.447) rotate(3)" fill="none" stroke="#1e1e1e" stroke-width="3"/>
      <path id="Path_38" data-name="Path 38" d="M101.9,1.772s-3.873,7.8-11.734,25.02c-2.09,4.579-5.071,10.95-10.324,16.724-5.7,6.26-11.469,14.648-15.1,19.885-5.38,7.767-21.805,20.59-27.687,27.027-6.983,7.642-9.95,9.35-15.216,12.571A96.934,96.934,0,0,1,0,113.2" transform="translate(393.929 789.386) rotate(3)" fill="none" stroke="#1e1e1e" stroke-width="3"/>
      <path id="Path_39" data-name="Path 39" d="M100.864,1.772s-5.514,4.554-13.3,15.567c-2.069,2.928-6.312,6.346-11.512,10.039A155.4,155.4,0,0,0,61.1,39.892C55.777,44.86,42.279,53.515,36.457,57.631c-6.912,4.887-9.626,6.823-14.839,8.883A127.315,127.315,0,0,1,0,73.036" transform="translate(391.753 831.989) rotate(3)" fill="none" stroke="#1e1e1e" stroke-width="3"/>
      <path id="Path_40" data-name="Path 40" d="M135.076,1.772s-7.384,5.475-17.805,18.718c-2.771,3.521-8.452,7.631-15.417,12.071A204.469,204.469,0,0,0,81.828,47.608C74.7,53.582,56.619,63.988,48.822,68.938c-9.256,5.877-12.892,8.2-19.872,10.681A185.618,185.618,0,0,1,0,87.461" transform="translate(392.508 820.419) rotate(3)" fill="none" stroke="#1e1e1e" stroke-width="3"/>
      <path id="Path_41" data-name="Path 41" d="M115.525,1.772A88.377,88.377,0,0,0,100.3,10.255c-2.37,1.6-7.229,3.458-13.185,5.471C80.655,17.908,74.1,20.72,69.984,22.545c-6.1,2.707-21.56,7.423-28.228,9.667-7.917,2.663-11.026,3.718-17,4.841C10.871,39.666,0,40.607,0,40.607" transform="translate(386.492 867.209) rotate(3)" fill="none" stroke="#1e1e1e" stroke-width="3"/>
      <path id="Path_30" data-name="Path 30" d="M0,0S7.8,17.129,16.917,35.026c5.293,10.39,15.39,21.949,23.152,31.991,6.239,8.073,12.585,16.106,19.406,22.8,28.313,27.769,52.916,27.785,52.916,27.785" transform="translate(274.011 777.378) rotate(3)" fill="none" stroke="#1e1e1e" stroke-width="3"/>
      <path id="Path_31" data-name="Path 31" d="M0,0S5.3,12.736,11.495,26.044c3.6,7.726,10.457,16.32,15.731,23.787a163.012,163.012,0,0,0,13.186,16.95c19.238,20.648,35.955,20.66,35.955,20.66" transform="translate(312.011 809.378) rotate(3)" fill="none" stroke="#1e1e1e" stroke-width="3"/>
      <path id="Path_32" data-name="Path 32" d="M0,0S8.233,22.387,14.453,44.389C18.063,57.163,29.445,76.783,34.74,89.128a290.976,290.976,0,0,0,14.075,27.925c19.315,34.139,27.858,27.52,27.858,27.52" transform="translate(322.011 754.378) rotate(3)" fill="none" stroke="#1e1e1e" stroke-width="3"/>
    </g>
  </g>
</svg>
